<svg version="1.1" id="Layer_1" xmlns="http://www.w3.org/2000/svg" xmlns:xlink="http://www.w3.org/1999/xlink" x="0px" y="0px"
	 width="100%" viewBox="0 0 192 192" enable-background="new 0 0 192 192" xml:space="preserve">
<path fill="#000000" opacity="1.000000" stroke="none" 
	d="
M181.903244,101.179047 
	C181.904053,104.817360 182.007782,107.985802 181.870422,111.143753 
	C181.591003,117.568489 178.946793,122.433250 172.332291,124.161591 
	C170.201874,124.718254 169.499390,125.976181 168.870422,127.854706 
	C165.255615,138.650879 158.748642,143.294876 147.229935,143.305023 
	C113.425674,143.334778 79.621368,143.333466 45.817097,143.310440 
	C34.848930,143.302979 28.509804,138.821823 24.826447,128.380280 
	C24.037996,126.145180 22.994379,124.813141 20.586493,124.079483 
	C14.770082,122.307289 12.065320,117.885468 11.889706,112.020355 
	C11.690432,105.365097 11.662452,98.695763 11.845746,92.040421 
	C12.044641,84.818695 16.420189,80.122139 23.710817,79.826683 
	C27.490768,79.673500 29.191891,78.074776 30.855854,74.959862 
	C44.866024,48.733070 66.727158,34.767502 96.575432,34.709599 
	C126.656563,34.651245 148.625488,48.732971 162.692169,75.152229 
	C164.371292,78.305855 166.122025,79.801125 169.836594,79.978951 
	C177.379471,80.340042 181.116409,84.630051 181.423477,92.229034 
	C181.537689,95.055931 181.736725,97.879402 181.903244,101.179047 
M162.644867,125.683365 
	C163.022018,115.533173 163.902390,105.276649 162.306366,95.262482 
	C157.742676,66.627953 133.497818,44.155479 104.984184,41.378372 
	C73.728195,38.334175 46.202812,54.405334 34.930584,81.799057 
	C29.732668,94.431023 30.334324,107.535118 30.386293,120.660156 
	C30.428034,131.201904 35.912491,136.735733 46.361320,136.752136 
	C79.998131,136.804962 113.635353,136.716858 147.271667,136.858932 
	C154.951080,136.891373 159.938217,133.650543 162.644867,125.683365 
M174.887192,107.341217 
	C174.876083,102.349960 174.915573,97.357880 174.835236,92.367737 
	C174.785522,89.279022 173.872055,86.859802 169.899597,87.152351 
	C169.899597,97.390709 169.899597,107.364532 169.899597,117.658577 
	C175.788773,116.188538 174.650208,111.902428 174.887192,107.341217 
M18.599424,113.424965 
	C19.344160,115.542747 20.411297,117.252876 23.224545,117.196251 
	C23.224545,106.936272 23.224545,96.924164 23.224545,86.712761 
	C19.058170,87.624794 18.395893,90.259102 18.389631,93.244247 
	C18.376091,99.699165 18.428791,106.154221 18.599424,113.424965 
z"/>
<path fill="#000000" opacity="1.000000" stroke="none" 
	d="
M81.000046,77.879364 
	C97.307350,77.888039 113.114845,77.852524 128.921906,77.919777 
	C143.539917,77.981972 152.253250,86.700180 152.322266,101.193062 
	C152.330978,103.023338 152.332474,104.853745 152.321808,106.684006 
	C152.247269,119.468102 144.381180,128.517670 131.545853,128.787827 
	C108.095139,129.281464 84.624825,129.175690 61.167946,128.889206 
	C51.082111,128.766052 43.374790,121.420418 41.497368,111.481049 
	C40.562023,106.529175 40.552197,101.498444 41.213196,96.569855 
	C42.675018,85.670120 51.419655,78.133286 62.530022,77.909439 
	C68.517799,77.788811 74.509903,77.882828 81.000046,77.879364 
M47.626720,109.590225 
	C50.736244,119.506416 55.259418,122.647591 65.659019,122.168579 
	C67.652870,122.076736 69.652863,122.101746 71.650024,122.101379 
	C91.125305,122.097801 110.600685,122.136711 130.075821,122.083092 
	C137.835617,122.061729 143.617584,118.162033 145.267746,111.641548 
	C145.907639,109.113091 145.808197,106.363152 145.811813,103.713799 
	C145.830994,89.662262 140.575882,84.385742 126.636795,84.379761 
	C108.160225,84.371841 89.660545,84.960571 71.213326,84.225479 
	C51.086864,83.423485 46.132507,91.378639 47.626720,109.590225 
z"/>
<path fill="#000000" opacity="1.000000" stroke="none" 
	d="
M116.031418,108.854263 
	C113.530609,102.898735 114.267845,98.630547 118.078476,95.475281 
	C121.856438,92.347061 126.518250,92.066498 130.517090,94.819283 
	C133.948517,97.181442 135.709595,100.512970 135.089920,104.646629 
	C134.485214,108.680313 132.248764,111.934364 128.184799,112.987915 
	C123.594887,114.177826 119.227432,113.552231 116.031418,108.854263 
z"/>
<path fill="#000000" opacity="1.000000" stroke="none" 
	d="
M77.406601,109.170563 
	C74.000153,113.647598 69.665077,114.281181 65.123474,112.827805 
	C61.390034,111.633049 59.253704,108.578239 58.773293,104.645920 
	C58.192276,99.890083 59.905178,96.126747 64.297081,93.970718 
	C68.465759,91.924271 72.387665,92.720467 75.803246,95.750160 
	C79.581497,99.101547 80.116745,103.311134 77.406601,109.170563 
z"/>
</svg>